<?xml version="1.0" encoding="us-ascii" standalone="no"?><svg xmlns="http://www.w3.org/2000/svg" xmlns:xlink="http://www.w3.org/1999/xlink" contentStyleType="text/css" height="1567px" preserveAspectRatio="none" style="width:635px;height:1567px;background:#FFFFFF;" version="1.1" viewBox="0 0 635 1567" width="635px" zoomAndPan="magnify"><defs/><g><text fill="#000000" font-family="sans-serif" font-size="14" font-weight="bold" lengthAdjust="spacing" textLength="190" x="221" y="34.5332">Battleship Game Main Flow</text><ellipse cx="366.5" cy="58.6094" fill="#222222" rx="10" ry="10" style="stroke:#222222;stroke-width:1.0;"/><rect fill="#F1F1F1" height="35.0938" rx="12.5" ry="12.5" style="stroke:#181818;stroke-width:0.5;" width="87" x="323" y="88.6094"/><text fill="#000000" font-family="sans-serif" font-size="12" lengthAdjust="spacing" textLength="67" x="333" y="111.0664">Page Loads</text><rect fill="#F1F1F1" height="35.0938" rx="12.5" ry="12.5" style="stroke:#181818;stroke-width:0.5;" width="90" x="321.5" y="143.7031"/><text fill="#000000" font-family="sans-serif" font-size="12" lengthAdjust="spacing" textLength="70" x="331.5" y="166.1602">resetGame()</text><rect fill="#F1F1F1" height="35.0938" rx="12.5" ry="12.5" style="stroke:#181818;stroke-width:0.5;" width="198" x="267.5" y="198.7969"/><text fill="#000000" font-family="sans-serif" font-size="12" lengthAdjust="spacing" textLength="178" x="277.5" y="221.2539">Wait for "Start Game" button click</text><rect fill="#F1F1F1" height="35.0938" rx="12.5" ry="12.5" style="stroke:#181818;stroke-width:0.5;" width="90" x="321.5" y="302.8086"/><text fill="#000000" font-family="sans-serif" font-size="12" lengthAdjust="spacing" textLength="70" x="331.5" y="325.2656">resetGame()</text><rect fill="#F1F1F1" height="35.0938" rx="12.5" ry="12.5" style="stroke:#181818;stroke-width:0.5;" width="242" x="245.5" y="357.9023"/><text fill="#000000" font-family="sans-serif" font-size="12" lengthAdjust="spacing" textLength="222" x="255.5" y="380.3594">Enable click-to-shoot on computer board</text><rect fill="#F1F1F1" height="35.0938" rx="12.5" ry="12.5" style="stroke:#181818;stroke-width:0.5;" width="225" x="254" y="412.9961"/><text fill="#000000" font-family="sans-serif" font-size="12" lengthAdjust="spacing" textLength="205" x="264" y="435.4531">statusDiv = "Game started! Your turn!"</text><rect fill="#F1F1F1" height="35.0938" rx="12.5" ry="12.5" style="stroke:#181818;stroke-width:0.5;" width="125" x="304" y="468.0898"/><text fill="#000000" font-family="sans-serif" font-size="12" lengthAdjust="spacing" textLength="105" x="314" y="490.5469">gameStarted = true</text><polygon fill="#F1F1F1" points="314.5,253.8906,418.5,253.8906,430.5,265.8906,418.5,277.8906,314.5,277.8906,302.5,265.8906,314.5,253.8906" style="stroke:#181818;stroke-width:0.5;"/><text fill="#000000" font-family="sans-serif" font-size="11" lengthAdjust="spacing" textLength="18" x="370.5" y="289.3096">yes</text><text fill="#000000" font-family="sans-serif" font-size="11" lengthAdjust="spacing" textLength="104" x="314.5" y="270.3916">"Start Game" clicked?</text><text fill="#000000" font-family="sans-serif" font-size="11" lengthAdjust="spacing" textLength="12" x="430.5" y="263.4736">no</text><ellipse cx="464.5" cy="265.8906" fill="none" rx="11" ry="11" style="stroke:#222222;stroke-width:1.0;"/><ellipse cx="464.5" cy="265.8906" fill="#222222" rx="6" ry="6" style="stroke:#222222;stroke-width:1.0;"/><polygon fill="#F1F1F1" points="340.5,567.1836,392.5,567.1836,404.5,579.1836,392.5,591.1836,340.5,591.1836,328.5,579.1836,340.5,567.1836" style="stroke:#181818;stroke-width:0.5;"/><text fill="#000000" font-family="sans-serif" font-size="11" lengthAdjust="spacing" textLength="52" x="340.5" y="583.6846">playerTurn</text><text fill="#000000" font-family="sans-serif" font-size="11" lengthAdjust="spacing" textLength="18" x="310.5" y="576.7666">yes</text><text fill="#000000" font-family="sans-serif" font-size="11" lengthAdjust="spacing" textLength="12" x="404.5" y="576.7666">no</text><rect fill="#F1F1F1" height="35.0938" rx="12.5" ry="12.5" style="stroke:#181818;stroke-width:0.5;" width="195" x="97.5" y="601.1836"/><text fill="#000000" font-family="sans-serif" font-size="12" lengthAdjust="spacing" textLength="175" x="107.5" y="623.6406">Player clicks on computer board</text><polygon fill="#F1F1F1" points="144.5,656.2773,245.5,656.2773,257.5,668.2773,245.5,680.2773,144.5,680.2773,132.5,668.2773,144.5,656.2773" style="stroke:#181818;stroke-width:0.5;"/><text fill="#000000" font-family="sans-serif" font-size="11" lengthAdjust="spacing" textLength="101" x="144.5" y="672.7783">Cell already hit/miss?</text><text fill="#000000" font-family="sans-serif" font-size="11" lengthAdjust="spacing" textLength="18" x="114.5" y="665.8604">yes</text><text fill="#000000" font-family="sans-serif" font-size="11" lengthAdjust="spacing" textLength="12" x="257.5" y="665.8604">no</text><rect fill="#F1F1F1" height="35.0938" rx="12.5" ry="12.5" style="stroke:#181818;stroke-width:0.5;" width="82" x="44" y="690.2773"/><text fill="#000000" font-family="sans-serif" font-size="12" lengthAdjust="spacing" textLength="62" x="54" y="712.7344">Ignore click</text><polygon fill="#F1F1F1" points="271.5,690.2773,338.5,690.2773,350.5,702.2773,338.5,714.2773,271.5,714.2773,259.5,702.2773,271.5,690.2773" style="stroke:#181818;stroke-width:0.5;"/><text fill="#000000" font-family="sans-serif" font-size="11" lengthAdjust="spacing" textLength="67" x="271.5" y="706.7783">Cell has ship?</text><text fill="#000000" font-family="sans-serif" font-size="11" lengthAdjust="spacing" textLength="18" x="241.5" y="699.8604">yes</text><text fill="#000000" font-family="sans-serif" font-size="11" lengthAdjust="spacing" textLength="12" x="350.5" y="699.8604">no</text><rect fill="#F1F1F1" height="35.0938" rx="12.5" ry="12.5" style="stroke:#181818;stroke-width:0.5;" width="79" x="189" y="724.2773"/><text fill="#000000" font-family="sans-serif" font-size="12" lengthAdjust="spacing" textLength="59" x="199" y="746.7344">Mark as hit</text><rect fill="#F1F1F1" height="35.0938" rx="12.5" ry="12.5" style="stroke:#181818;stroke-width:0.5;" width="125" x="166" y="781.4648"/><text fill="#000000" font-family="sans-serif" font-size="12" lengthAdjust="spacing" textLength="105" x="176" y="803.9219">Update board state</text><rect fill="#F1F1F1" height="35.0938" rx="12.5" ry="12.5" style="stroke:#181818;stroke-width:0.5;" width="145" x="156" y="851.5586"/><text fill="#000000" font-family="sans-serif" font-size="12" lengthAdjust="spacing" textLength="125" x="166" y="874.0156">computerShipsCount--</text><rect fill="#F1F1F1" height="35.0938" rx="12.5" ry="12.5" style="stroke:#181818;stroke-width:0.5;" width="110" x="173.5" y="906.6523"/><text fill="#000000" font-family="sans-serif" font-size="12" lengthAdjust="spacing" textLength="90" x="183.5" y="929.1094">statusDiv = "Hit!"</text><rect fill="#F1F1F1" height="35.0938" rx="12.5" ry="12.5" style="stroke:#181818;stroke-width:0.5;" width="94" x="334.5" y="724.2773"/><text fill="#000000" font-family="sans-serif" font-size="12" lengthAdjust="spacing" textLength="74" x="344.5" y="746.7344">Mark as miss</text><rect fill="#F1F1F1" height="35.0938" rx="12.5" ry="12.5" style="stroke:#181818;stroke-width:0.5;" width="121" x="321" y="781.4648"/><text fill="#000000" font-family="sans-serif" font-size="12" lengthAdjust="spacing" textLength="101" x="331" y="803.9219">statusDiv = "Miss!"</text><polygon fill="#F1F1F1" points="305,947.7461,317,959.7461,305,971.7461,293,959.7461,305,947.7461" style="stroke:#181818;stroke-width:0.5;"/><rect fill="#F1F1F1" height="35.0938" rx="12.5" ry="12.5" style="stroke:#181818;stroke-width:0.5;" width="118" x="246" y="991.7461"/><text fill="#000000" font-family="sans-serif" font-size="12" lengthAdjust="spacing" textLength="98" x="256" y="1014.2031">playerTurn = false</text><rect fill="#F1F1F1" height="35.0938" rx="12.5" ry="12.5" style="stroke:#181818;stroke-width:0.5;" width="81" x="264.5" y="1061.8398"/><text fill="#000000" font-family="sans-serif" font-size="12" lengthAdjust="spacing" textLength="61" x="274.5" y="1084.2969">checkWin()</text><polygon fill="#F1F1F1" points="276,1116.9336,334,1116.9336,346,1128.9336,334,1140.9336,276,1140.9336,264,1128.9336,276,1116.9336" style="stroke:#181818;stroke-width:0.5;"/><text fill="#000000" font-family="sans-serif" font-size="11" lengthAdjust="spacing" textLength="58" x="276" y="1133.4346">gameOver()</text><text fill="#000000" font-family="sans-serif" font-size="11" lengthAdjust="spacing" textLength="18" x="246" y="1126.5166">yes</text><text fill="#000000" font-family="sans-serif" font-size="11" lengthAdjust="spacing" textLength="12" x="346" y="1126.5166">no</text><rect fill="#F1F1F1" height="35.0938" rx="12.5" ry="12.5" style="stroke:#181818;stroke-width:0.5;" width="86" x="313" y="1150.9336"/><text fill="#000000" font-family="sans-serif" font-size="12" lengthAdjust="spacing" textLength="66" x="323" y="1173.3906">Wait 700ms</text><rect fill="#F1F1F1" height="35.0938" rx="12.5" ry="12.5" style="stroke:#181818;stroke-width:0.5;" width="105" x="303.5" y="1206.0273"/><text fill="#000000" font-family="sans-serif" font-size="12" lengthAdjust="spacing" textLength="85" x="313.5" y="1228.4844">computerTurn()</text><polygon fill="#F1F1F1" points="195,1251.1211,207,1263.1211,195,1275.1211,183,1263.1211,195,1251.1211" style="stroke:#181818;stroke-width:0.5;"/><rect fill="#F1F1F1" height="35.0938" rx="12.5" ry="12.5" style="stroke:#181818;stroke-width:0.5;" width="105" x="485.5" y="601.1836"/><text fill="#000000" font-family="sans-serif" font-size="12" lengthAdjust="spacing" textLength="85" x="495.5" y="623.6406">computerTurn()</text><rect fill="#F1F1F1" height="35.0938" rx="12.5" ry="12.5" style="stroke:#181818;stroke-width:0.5;" width="112" x="482" y="656.2773"/><text fill="#000000" font-family="sans-serif" font-size="12" lengthAdjust="spacing" textLength="92" x="492" y="678.7344">playerTurn = true</text><rect fill="#F1F1F1" height="35.0938" rx="12.5" ry="12.5" style="stroke:#181818;stroke-width:0.5;" width="81" x="497.5" y="726.3711"/><text fill="#000000" font-family="sans-serif" font-size="12" lengthAdjust="spacing" textLength="61" x="507.5" y="748.8281">checkWin()</text><polygon fill="#F1F1F1" points="509,783.5586,567,783.5586,579,795.5586,567,807.5586,509,807.5586,497,795.5586,509,783.5586" style="stroke:#181818;stroke-width:0.5;"/><text fill="#000000" font-family="sans-serif" font-size="11" lengthAdjust="spacing" textLength="18" x="542" y="818.9775">yes</text><text fill="#000000" font-family="sans-serif" font-size="11" lengthAdjust="spacing" textLength="58" x="509" y="800.0596">gameOver()</text><polygon fill="#F1F1F1" points="366.5,1281.1211,378.5,1293.1211,366.5,1305.1211,354.5,1293.1211,366.5,1281.1211" style="stroke:#181818;stroke-width:0.5;"/><polygon fill="#F1F1F1" points="336,523.1836,397,523.1836,409,535.1836,397,547.1836,336,547.1836,324,535.1836,336,523.1836" style="stroke:#181818;stroke-width:0.5;"/><text fill="#000000" font-family="sans-serif" font-size="11" lengthAdjust="spacing" textLength="61" x="336" y="539.6846">gameStarted</text><polygon fill="#F1F1F1" points="190.5,1347.1211,314.5,1347.1211,326.5,1359.1211,314.5,1371.1211,190.5,1371.1211,178.5,1359.1211,190.5,1347.1211" style="stroke:#181818;stroke-width:0.5;"/><text fill="#000000" font-family="sans-serif" font-size="11" lengthAdjust="spacing" textLength="18" x="256.5" y="1382.54">yes</text><text fill="#000000" font-family="sans-serif" font-size="11" lengthAdjust="spacing" textLength="124" x="190.5" y="1363.6221">computerShipsCount == 0</text><rect fill="#F1F1F1" height="35.0938" rx="12.5" ry="12.5" style="stroke:#181818;stroke-width:0.5;" width="153" x="176" y="1404.04"/><text fill="#000000" font-family="sans-serif" font-size="12" lengthAdjust="spacing" textLength="133" x="186" y="1426.4971">statusDiv = "&#127881; You win!"</text><rect fill="#F1F1F1" height="35.0938" rx="12.5" ry="12.5" style="stroke:#181818;stroke-width:0.5;" width="131" x="187" y="1459.1338"/><text fill="#000000" font-family="sans-serif" font-size="12" lengthAdjust="spacing" textLength="111" x="197" y="1481.5908">gameStarted = false</text><polygon fill="#F1F1F1" points="373.5,1347.1211,482.5,1347.1211,494.5,1359.1211,482.5,1371.1211,373.5,1371.1211,361.5,1359.1211,373.5,1347.1211" style="stroke:#181818;stroke-width:0.5;"/><text fill="#000000" font-family="sans-serif" font-size="11" lengthAdjust="spacing" textLength="18" x="432" y="1382.54">yes</text><text fill="#000000" font-family="sans-serif" font-size="11" lengthAdjust="spacing" textLength="109" x="373.5" y="1363.6221">playerShipsCount == 0</text><rect fill="#F1F1F1" height="35.0938" rx="12.5" ry="12.5" style="stroke:#181818;stroke-width:0.5;" width="158" x="349" y="1404.04"/><text fill="#000000" font-family="sans-serif" font-size="12" lengthAdjust="spacing" textLength="138" x="359" y="1426.4971">statusDiv = "&#128165; You lose!"</text><rect fill="#F1F1F1" height="35.0938" rx="12.5" ry="12.5" style="stroke:#181818;stroke-width:0.5;" width="131" x="362.5" y="1459.1338"/><text fill="#000000" font-family="sans-serif" font-size="12" lengthAdjust="spacing" textLength="111" x="372.5" y="1481.5908">gameStarted = false</text><ellipse cx="366.5" cy="1545.2275" fill="none" rx="11" ry="11" style="stroke:#222222;stroke-width:1.0;"/><ellipse cx="366.5" cy="1545.2275" fill="#222222" rx="6" ry="6" style="stroke:#222222;stroke-width:1.0;"/><line style="stroke:#181818;stroke-width:1.0;" x1="366.5" x2="366.5" y1="68.6094" y2="88.6094"/><polygon fill="#181818" points="362.5,78.6094,366.5,88.6094,370.5,78.6094,366.5,82.6094" style="stroke:#181818;stroke-width:1.0;"/><line style="stroke:#181818;stroke-width:1.0;" x1="366.5" x2="366.5" y1="123.7031" y2="143.7031"/><polygon fill="#181818" points="362.5,133.7031,366.5,143.7031,370.5,133.7031,366.5,137.7031" style="stroke:#181818;stroke-width:1.0;"/><line style="stroke:#181818;stroke-width:1.0;" x1="366.5" x2="366.5" y1="178.7969" y2="198.7969"/><polygon fill="#181818" points="362.5,188.7969,366.5,198.7969,370.5,188.7969,366.5,192.7969" style="stroke:#181818;stroke-width:1.0;"/><line style="stroke:#181818;stroke-width:1.0;" x1="366.5" x2="366.5" y1="337.9023" y2="357.9023"/><polygon fill="#181818" points="362.5,347.9023,366.5,357.9023,370.5,347.9023,366.5,351.9023" style="stroke:#181818;stroke-width:1.0;"/><line style="stroke:#181818;stroke-width:1.0;" x1="366.5" x2="366.5" y1="392.9961" y2="412.9961"/><polygon fill="#181818" points="362.5,402.9961,366.5,412.9961,370.5,402.9961,366.5,406.9961" style="stroke:#181818;stroke-width:1.0;"/><line style="stroke:#181818;stroke-width:1.0;" x1="366.5" x2="366.5" y1="448.0898" y2="468.0898"/><polygon fill="#181818" points="362.5,458.0898,366.5,468.0898,370.5,458.0898,366.5,462.0898" style="stroke:#181818;stroke-width:1.0;"/><line style="stroke:#181818;stroke-width:1.0;" x1="366.5" x2="366.5" y1="277.8906" y2="302.8086"/><polygon fill="#181818" points="362.5,292.8086,366.5,302.8086,370.5,292.8086,366.5,296.8086" style="stroke:#181818;stroke-width:1.0;"/><line style="stroke:#181818;stroke-width:1.0;" x1="430.5" x2="453.5" y1="265.8906" y2="265.8906"/><polygon fill="#181818" points="443.5,261.8906,453.5,265.8906,443.5,269.8906,447.5,265.8906" style="stroke:#181818;stroke-width:1.0;"/><line style="stroke:#181818;stroke-width:1.0;" x1="366.5" x2="366.5" y1="503.1836" y2="523.1836"/><polygon fill="#181818" points="362.5,513.1836,366.5,523.1836,370.5,513.1836,366.5,517.1836" style="stroke:#181818;stroke-width:1.0;"/><line style="stroke:#181818;stroke-width:1.0;" x1="366.5" x2="366.5" y1="233.8906" y2="253.8906"/><polygon fill="#181818" points="362.5,243.8906,366.5,253.8906,370.5,243.8906,366.5,247.8906" style="stroke:#181818;stroke-width:1.0;"/><line style="stroke:#181818;stroke-width:1.0;" x1="228.5" x2="228.5" y1="759.3711" y2="781.4648"/><polygon fill="#181818" points="224.5,771.4648,228.5,781.4648,232.5,771.4648,228.5,775.4648" style="stroke:#181818;stroke-width:1.0;"/><line style="stroke:#181818;stroke-width:1.0;" x1="228.5" x2="228.5" y1="816.5586" y2="851.5586"/><polygon fill="#181818" points="224.5,841.5586,228.5,851.5586,232.5,841.5586,228.5,845.5586" style="stroke:#181818;stroke-width:1.0;"/><line style="stroke:#181818;stroke-width:1.0;" x1="228.5" x2="228.5" y1="886.6523" y2="906.6523"/><polygon fill="#181818" points="224.5,896.6523,228.5,906.6523,232.5,896.6523,228.5,900.6523" style="stroke:#181818;stroke-width:1.0;"/><line style="stroke:#181818;stroke-width:1.0;" x1="381.5" x2="381.5" y1="759.3711" y2="781.4648"/><polygon fill="#181818" points="377.5,771.4648,381.5,781.4648,385.5,771.4648,381.5,775.4648" style="stroke:#181818;stroke-width:1.0;"/><line style="stroke:#181818;stroke-width:1.0;" x1="259.5" x2="228.5" y1="702.2773" y2="702.2773"/><line style="stroke:#181818;stroke-width:1.0;" x1="228.5" x2="228.5" y1="702.2773" y2="724.2773"/><polygon fill="#181818" points="224.5,714.2773,228.5,724.2773,232.5,714.2773,228.5,718.2773" style="stroke:#181818;stroke-width:1.0;"/><line style="stroke:#181818;stroke-width:1.0;" x1="350.5" x2="381.5" y1="702.2773" y2="702.2773"/><line style="stroke:#181818;stroke-width:1.0;" x1="381.5" x2="381.5" y1="702.2773" y2="724.2773"/><polygon fill="#181818" points="377.5,714.2773,381.5,724.2773,385.5,714.2773,381.5,718.2773" style="stroke:#181818;stroke-width:1.0;"/><line style="stroke:#181818;stroke-width:1.0;" x1="228.5" x2="228.5" y1="941.7461" y2="959.7461"/><line style="stroke:#181818;stroke-width:1.0;" x1="228.5" x2="293" y1="959.7461" y2="959.7461"/><polygon fill="#181818" points="283,955.7461,293,959.7461,283,963.7461,287,959.7461" style="stroke:#181818;stroke-width:1.0;"/><line style="stroke:#181818;stroke-width:1.0;" x1="381.5" x2="381.5" y1="816.5586" y2="959.7461"/><line style="stroke:#181818;stroke-width:1.0;" x1="381.5" x2="317" y1="959.7461" y2="959.7461"/><polygon fill="#181818" points="327,955.7461,317,959.7461,327,963.7461,323,959.7461" style="stroke:#181818;stroke-width:1.0;"/><line style="stroke:#181818;stroke-width:1.0;" x1="305" x2="305" y1="971.7461" y2="991.7461"/><polygon fill="#181818" points="301,981.7461,305,991.7461,309,981.7461,305,985.7461" style="stroke:#181818;stroke-width:1.0;"/><line style="stroke:#181818;stroke-width:1.0;" x1="305" x2="305" y1="1026.8398" y2="1061.8398"/><polygon fill="#181818" points="301,1051.8398,305,1061.8398,309,1051.8398,305,1055.8398" style="stroke:#181818;stroke-width:1.0;"/><line style="stroke:#181818;stroke-width:1.0;" x1="356" x2="356" y1="1186.0273" y2="1206.0273"/><polygon fill="#181818" points="352,1196.0273,356,1206.0273,360,1196.0273,356,1200.0273" style="stroke:#181818;stroke-width:1.0;"/><line style="stroke:#181818;stroke-width:1.0;" x1="264" x2="254" y1="1128.9336" y2="1128.9336"/><line style="stroke:#181818;stroke-width:1.0;" x1="254" x2="254" y1="1128.9336" y2="1150.9336"/><line style="stroke:#181818;stroke-width:1.0;" x1="254" x2="24" y1="1150.9336" y2="1150.9336"/><polygon fill="#181818" points="34,1146.9336,24,1150.9336,34,1154.9336,30,1150.9336" style="stroke:#181818;stroke-width:1.0;"/><line style="stroke:#181818;stroke-width:1.0;" x1="346" x2="356" y1="1128.9336" y2="1128.9336"/><line style="stroke:#181818;stroke-width:1.0;" x1="356" x2="356" y1="1128.9336" y2="1150.9336"/><polygon fill="#181818" points="352,1140.9336,356,1150.9336,360,1140.9336,356,1144.9336" style="stroke:#181818;stroke-width:1.0;"/><line style="stroke:#181818;stroke-width:1.0;" x1="356" x2="356" y1="1241.1211" y2="1263.1211"/><line style="stroke:#181818;stroke-width:1.0;" x1="356" x2="207" y1="1263.1211" y2="1263.1211"/><polygon fill="#181818" points="217,1259.1211,207,1263.1211,217,1267.1211,213,1263.1211" style="stroke:#181818;stroke-width:1.0;"/><line style="stroke:#181818;stroke-width:1.0;" x1="305" x2="305" y1="1096.9336" y2="1116.9336"/><polygon fill="#181818" points="301,1106.9336,305,1116.9336,309,1106.9336,305,1110.9336" style="stroke:#181818;stroke-width:1.0;"/><line style="stroke:#181818;stroke-width:1.0;" x1="132.5" x2="85" y1="668.2773" y2="668.2773"/><line style="stroke:#181818;stroke-width:1.0;" x1="85" x2="85" y1="668.2773" y2="690.2773"/><polygon fill="#181818" points="81,680.2773,85,690.2773,89,680.2773,85,684.2773" style="stroke:#181818;stroke-width:1.0;"/><line style="stroke:#181818;stroke-width:1.0;" x1="257.5" x2="305" y1="668.2773" y2="668.2773"/><line style="stroke:#181818;stroke-width:1.0;" x1="305" x2="305" y1="668.2773" y2="690.2773"/><polygon fill="#181818" points="301,680.2773,305,690.2773,309,680.2773,305,684.2773" style="stroke:#181818;stroke-width:1.0;"/><line style="stroke:#181818;stroke-width:1.0;" x1="85" x2="85" y1="725.3711" y2="1263.1211"/><line style="stroke:#181818;stroke-width:1.0;" x1="85" x2="183" y1="1263.1211" y2="1263.1211"/><polygon fill="#181818" points="173,1259.1211,183,1263.1211,173,1267.1211,177,1263.1211" style="stroke:#181818;stroke-width:1.0;"/><line style="stroke:#181818;stroke-width:1.0;" x1="195" x2="195" y1="636.2773" y2="656.2773"/><polygon fill="#181818" points="191,646.2773,195,656.2773,199,646.2773,195,650.2773" style="stroke:#181818;stroke-width:1.0;"/><line style="stroke:#181818;stroke-width:1.0;" x1="538" x2="538" y1="636.2773" y2="656.2773"/><polygon fill="#181818" points="534,646.2773,538,656.2773,542,646.2773,538,650.2773" style="stroke:#181818;stroke-width:1.0;"/><line style="stroke:#181818;stroke-width:1.0;" x1="538" x2="538" y1="691.3711" y2="726.3711"/><polygon fill="#181818" points="534,716.3711,538,726.3711,542,716.3711,538,720.3711" style="stroke:#181818;stroke-width:1.0;"/><line style="stroke:#181818;stroke-width:1.0;" x1="538" x2="538" y1="807.5586" y2="832.4766"/><line style="stroke:#181818;stroke-width:1.0;" x1="538" x2="24" y1="832.4766" y2="832.4766"/><polygon fill="#181818" points="34,828.4766,24,832.4766,34,836.4766,30,832.4766" style="stroke:#181818;stroke-width:1.0;"/><line style="stroke:#181818;stroke-width:1.0;" x1="579" x2="591" y1="795.5586" y2="795.5586"/><polygon fill="#181818" points="587,1035.3398,591,1045.3398,595,1035.3398,591,1039.3398" style="stroke:#181818;stroke-width:1.0;"/><line style="stroke:#181818;stroke-width:1.0;" x1="591" x2="591" y1="795.5586" y2="1293.1211"/><line style="stroke:#181818;stroke-width:1.0;" x1="591" x2="378.5" y1="1293.1211" y2="1293.1211"/><polygon fill="#181818" points="388.5,1289.1211,378.5,1293.1211,388.5,1297.1211,384.5,1293.1211" style="stroke:#181818;stroke-width:1.0;"/><line style="stroke:#181818;stroke-width:1.0;" x1="538" x2="538" y1="761.4648" y2="783.5586"/><polygon fill="#181818" points="534,773.5586,538,783.5586,542,773.5586,538,777.5586" style="stroke:#181818;stroke-width:1.0;"/><line style="stroke:#181818;stroke-width:1.0;" x1="328.5" x2="195" y1="579.1836" y2="579.1836"/><line style="stroke:#181818;stroke-width:1.0;" x1="195" x2="195" y1="579.1836" y2="601.1836"/><polygon fill="#181818" points="191,591.1836,195,601.1836,199,591.1836,195,595.1836" style="stroke:#181818;stroke-width:1.0;"/><line style="stroke:#181818;stroke-width:1.0;" x1="404.5" x2="538" y1="579.1836" y2="579.1836"/><line style="stroke:#181818;stroke-width:1.0;" x1="538" x2="538" y1="579.1836" y2="601.1836"/><polygon fill="#181818" points="534,591.1836,538,601.1836,542,591.1836,538,595.1836" style="stroke:#181818;stroke-width:1.0;"/><line style="stroke:#181818;stroke-width:1.0;" x1="195" x2="195" y1="1275.1211" y2="1293.1211"/><line style="stroke:#181818;stroke-width:1.0;" x1="195" x2="354.5" y1="1293.1211" y2="1293.1211"/><polygon fill="#181818" points="344.5,1289.1211,354.5,1293.1211,344.5,1297.1211,348.5,1293.1211" style="stroke:#181818;stroke-width:1.0;"/><line style="stroke:#181818;stroke-width:1.0;" x1="366.5" x2="366.5" y1="547.1836" y2="567.1836"/><polygon fill="#181818" points="362.5,557.1836,366.5,567.1836,370.5,557.1836,366.5,561.1836" style="stroke:#181818;stroke-width:1.0;"/><line style="stroke:#181818;stroke-width:1.0;" x1="366.5" x2="366.5" y1="1305.1211" y2="1315.1211"/><line style="stroke:#181818;stroke-width:1.0;" x1="366.5" x2="609" y1="1315.1211" y2="1315.1211"/><polygon fill="#181818" points="605,936.1992,609,926.1992,613,936.1992,609,932.1992" style="stroke:#181818;stroke-width:1.0;"/><line style="stroke:#181818;stroke-width:1.0;" x1="609" x2="609" y1="535.1836" y2="1315.1211"/><line style="stroke:#181818;stroke-width:1.0;" x1="609" x2="409" y1="535.1836" y2="535.1836"/><polygon fill="#181818" points="419,531.1836,409,535.1836,419,539.1836,415,535.1836" style="stroke:#181818;stroke-width:1.0;"/><line style="stroke:#181818;stroke-width:1.0;" x1="324" x2="24" y1="535.1836" y2="535.1836"/><polygon fill="#181818" points="20,922.1992,24,932.1992,28,922.1992,24,926.1992" style="stroke:#181818;stroke-width:1.0;"/><line style="stroke:#181818;stroke-width:1.0;" x1="24" x2="24" y1="535.1836" y2="1327.1211"/><line style="stroke:#181818;stroke-width:1.0;" x1="24" x2="366.5" y1="1327.1211" y2="1327.1211"/><line style="stroke:#181818;stroke-width:1.0;" x1="366.5" x2="366.5" y1="1327.1211" y2="1332.1211"/><line style="stroke:#181818;stroke-width:1.0;" x1="252.5" x2="252.5" y1="1439.1338" y2="1459.1338"/><polygon fill="#181818" points="248.5,1449.1338,252.5,1459.1338,256.5,1449.1338,252.5,1453.1338" style="stroke:#181818;stroke-width:1.0;"/><line style="stroke:#181818;stroke-width:1.0;" x1="428" x2="428" y1="1439.1338" y2="1459.1338"/><polygon fill="#181818" points="424,1449.1338,428,1459.1338,432,1449.1338,428,1453.1338" style="stroke:#181818;stroke-width:1.0;"/><line style="stroke:#181818;stroke-width:1.0;" x1="252.5" x2="252.5" y1="1371.1211" y2="1404.04"/><polygon fill="#181818" points="248.5,1394.04,252.5,1404.04,256.5,1394.04,252.5,1398.04" style="stroke:#181818;stroke-width:1.0;"/><line style="stroke:#181818;stroke-width:1.0;" x1="252.5" x2="252.5" y1="1494.2275" y2="1514.2275"/><polygon fill="#181818" points="248.5,1504.2275,252.5,1514.2275,256.5,1504.2275,252.5,1508.2275" style="stroke:#181818;stroke-width:1.0;"/><line style="stroke:#181818;stroke-width:1.0;" x1="428" x2="428" y1="1371.1211" y2="1404.04"/><polygon fill="#181818" points="424,1394.04,428,1404.04,432,1394.04,428,1398.04" style="stroke:#181818;stroke-width:1.0;"/><line style="stroke:#181818;stroke-width:1.0;" x1="428" x2="428" y1="1494.2275" y2="1514.2275"/><polygon fill="#181818" points="424,1504.2275,428,1514.2275,432,1504.2275,428,1508.2275" style="stroke:#181818;stroke-width:1.0;"/><line style="stroke:#181818;stroke-width:1.0;" x1="326.5" x2="361.5" y1="1359.1211" y2="1359.1211"/><polygon fill="#181818" points="351.5,1355.1211,361.5,1359.1211,351.5,1363.1211,355.5,1359.1211" style="stroke:#181818;stroke-width:1.0;"/><line style="stroke:#181818;stroke-width:1.0;" x1="366.5" x2="252.5" y1="1332.1211" y2="1332.1211"/><line style="stroke:#181818;stroke-width:1.0;" x1="252.5" x2="252.5" y1="1332.1211" y2="1347.1211"/><polygon fill="#181818" points="248.5,1337.1211,252.5,1347.1211,256.5,1337.1211,252.5,1341.1211" style="stroke:#181818;stroke-width:1.0;"/><line style="stroke:#181818;stroke-width:1.0;" x1="494.5" x2="542" y1="1359.1211" y2="1359.1211"/><line style="stroke:#181818;stroke-width:1.0;" x1="542" x2="542" y1="1359.1211" y2="1514.2275"/><polygon fill="#181818" points="538,1504.2275,542,1514.2275,546,1504.2275,542,1508.2275" style="stroke:#181818;stroke-width:1.0;"/><line style="stroke:#181818;stroke-width:1.0;" x1="252.5" x2="542" y1="1514.2275" y2="1514.2275"/><line style="stroke:#181818;stroke-width:1.0;" x1="366.5" x2="366.5" y1="1514.2275" y2="1534.2275"/><polygon fill="#181818" points="362.5,1524.2275,366.5,1534.2275,370.5,1524.2275,366.5,1528.2275" style="stroke:#181818;stroke-width:1.0;"/><!--SRC=[bLFBRjim4BppApO-oGSZlWMmO1XeqZo0637W5a6FjBMs2DEaGAvi-1DowQ4_q5F_hv_G9HL5KgoqwCMokAFPcLakAT88doJnm-UgW3kvHvXBPU1MswCGdgGZ8IOBkKLuj3BpgPWuz4W1cGnJhZrBHR2n3WRBW8uS0rYLHDR0MglrBXLg0qcd7Cyncms1SZIGdD0F1K2Nczy_6xbYYH4-8ZlokRK4WTZkYvBGmSfAbqKiYwNItwW3J64GdKJvc5t0DriweDAPYq64Rhcwh8eC9bTYAb1xXCJOeCEJBGIQJ6s4EEQA5IIjJm8YE2gqFA7xmhJlR727HQnLmds_u8ha6hK6gHtAx0IveikzydvsHiYK3rjZ7TQHXgEsv0vVBZs4WVRnCDDSkXqmXDkbpUdN8fE4bRuG7M6hMCjVCgk_jgMXqQXLxcH_hwZAkKzZgtrm-X77d6ijaZYALrmJEmCtalbhs6ITuthth4nrU-f8mkYU3kYIOMySAyv-zx7QUB-lnkEzxuaZg6YQDJBhVrs-ti-wVggxs6lcdrOQ8s_juvD_uoKMSG_F9mdJAOpVRs9d6hz_Vdy9ImH7rRz2hsE8TflL-ByMFtx55jfw_6kFQYt3Ylu1]--></g></svg>